<svg xmlns="http://www.w3.org/2000/svg" viewBox="0 0 20.65 18.13"><defs><style>.cls-1{fill:#23211f;}</style></defs><g id="Слой_2" data-name="Слой 2"><g id="addWork"><path class="cls-1" d="M10.33,18.13a2.14,2.14,0,0,1-1.52-.63l-7-7A6.15,6.15,0,0,1,2.24,1.4a6.28,6.28,0,0,1,8.08.25,6.14,6.14,0,0,1,8.53.15h0a6.15,6.15,0,0,1,0,8.69l-7,7A2.14,2.14,0,0,1,10.33,18.13ZM6.07,3a3,3,0,0,0-1.92.67A3.15,3.15,0,0,0,3,6a3.19,3.19,0,0,0,.92,2.38l6.41,6.41,6.41-6.41a3.15,3.15,0,0,0,0-4.45h0a3.14,3.14,0,0,0-4.42,0l-2,2L8.51,4.06A3.44,3.44,0,0,0,6.07,3Z"/></g></g></svg>