<svg xmlns="http://www.w3.org/2000/svg" viewBox="0 0 122.52 127.57"><defs><style>.cls-1{fill:#fff;stroke:#007041;stroke-linecap:round;stroke-linejoin:round;stroke-width:5px;}</style></defs><g id="Слой_2" data-name="Слой 2"><g id="mainLinks"><line class="cls-1" x1="112.48" y1="43.64" x2="120.02" y2="43.64"/><line class="cls-1" x1="112.87" y1="27.64" x2="119.63" y2="24.3"/><line class="cls-1" x1="112.87" y1="59.64" x2="119.63" y2="62.97"/><line class="cls-1" x1="10.04" y1="43.64" x2="2.5" y2="43.64"/><line class="cls-1" x1="9.65" y1="27.64" x2="2.89" y2="24.3"/><line class="cls-1" x1="9.65" y1="59.64" x2="2.89" y2="62.97"/><circle class="cls-1" cx="60.85" cy="112.5" r="12.57"/><path class="cls-1" d="M104.34,46a43.49,43.49,0,0,0-86.95-1.57c-.51,14.31,5.86,26.27,16.17,35.42a17.73,17.73,0,0,1,5.71,8.93l4.22,19.45A4.6,4.6,0,0,0,48,111.73H73.74a4.6,4.6,0,0,0,4.47-3.51l4.22-19.44a18.47,18.47,0,0,1,5.84-9C98.07,70.69,104.34,59.61,104.34,46Z"/><path class="cls-1" d="M91.46,35.1C87.35,24.7,80.08,19,70.44,14.9"/><line class="cls-1" x1="41.87" y1="99.51" x2="79.83" y2="99.51"/></g></g></svg>