<svg xmlns="http://www.w3.org/2000/svg" viewBox="0 0 343 249.66"><defs><style>.cls-1{opacity:0.31;}.cls-2{fill:#3d3935;}</style></defs><g id="Слой_2" data-name="Слой 2"><g id="mainLinks"><g class="cls-1"><path class="cls-2" d="M336.5,183.66a6.5,6.5,0,0,0-6.5,6.5v46.5H13v-46.5a6.5,6.5,0,0,0-13,0v53a6.5,6.5,0,0,0,6.5,6.5h330a6.5,6.5,0,0,0,6.5-6.5v-53A6.5,6.5,0,0,0,336.5,183.66Z"/><path class="cls-2" d="M166.9,179.26c.13.13.27.24.4.36l.08.07a6.76,6.76,0,0,0,.7.49l.15.09a5.68,5.68,0,0,0,.78.39h0a6.37,6.37,0,0,0,1.2.36h0l.53.08h.1l.53,0h.1q.31,0,.63,0h0a6.56,6.56,0,0,0,2.93-1h0c.17-.12.34-.24.5-.37s.33-.29.49-.44l62-62a6.5,6.5,0,1,0-9.2-9.19L178,159V6.5a6.5,6.5,0,0,0-13,0V159l-50.9-50.9a6.5,6.5,0,1,0-9.2,9.19Z"/></g></g></g></svg>