<svg xmlns="http://www.w3.org/2000/svg" viewBox="0 0 1150 214.82"><defs><style>.cls-1{fill:#fff;}</style></defs><g id="Слой_2" data-name="Слой 2"><g id="titles"><path class="cls-1" d="M341.75,42.72H312.42l.09,50H298.33V31.1h43.51Z"/><path class="cls-1" d="M384.81,49.9q5.9,5.24,5.9,15.81v27H377.85v-5.9q-3.87,6.61-14.44,6.61a22.47,22.47,0,0,1-9.47-1.85,14.13,14.13,0,0,1-6.12-5.11,13.29,13.29,0,0,1-2.11-7.4,12.37,12.37,0,0,1,5-10.39q5-3.78,15.37-3.79H377A8.76,8.76,0,0,0,374.24,58q-2.73-2.41-8.19-2.42a24,24,0,0,0-7.44,1.19A19.58,19.58,0,0,0,352.4,60l-4.93-9.6a30,30,0,0,1,9.29-4.22,41.52,41.52,0,0,1,11.14-1.5Q378.91,44.66,384.81,49.9ZM373.1,82.57a8.85,8.85,0,0,0,3.87-4.8V72.93h-9.42q-8.46,0-8.46,5.55a4.94,4.94,0,0,0,2.07,4.18,9.32,9.32,0,0,0,5.68,1.54A12,12,0,0,0,373.1,82.57Z"/><path class="cls-1" d="M442.63,47.7a21.72,21.72,0,0,1,8.49,8.54,25.73,25.73,0,0,1,3.09,12.81,25.75,25.75,0,0,1-3.09,12.82,21.79,21.79,0,0,1-8.49,8.54,24.25,24.25,0,0,1-12,3q-9.06,0-14.26-5.73v22.11H402.6V45.36h13.12v5.46q5.1-6.15,14.88-6.16A24.14,24.14,0,0,1,442.63,47.7ZM436.9,78.61q3.39-3.57,3.39-9.56T436.9,59.5a12.33,12.33,0,0,0-17.35,0q-3.39,3.57-3.39,9.55t3.39,9.56a12.33,12.33,0,0,0,17.35,0Z"/><path class="cls-1" d="M498.33,49.9q5.9,5.24,5.9,15.81v27H491.37v-5.9q-3.89,6.61-14.44,6.61a22.47,22.47,0,0,1-9.47-1.85,14.13,14.13,0,0,1-6.12-5.11,13.29,13.29,0,0,1-2.12-7.4,12.35,12.35,0,0,1,5-10.39q5-3.78,15.37-3.79h10.92A8.76,8.76,0,0,0,487.76,58q-2.73-2.41-8.19-2.42a23.93,23.93,0,0,0-7.44,1.19A19.58,19.58,0,0,0,465.92,60L461,50.38a30,30,0,0,1,9.29-4.22,41.52,41.52,0,0,1,11.14-1.5Q492.43,44.66,498.33,49.9ZM486.61,82.57a8.91,8.91,0,0,0,3.88-4.8V72.93h-9.43q-8.44,0-8.45,5.55a4.94,4.94,0,0,0,2.07,4.18,9.3,9.3,0,0,0,5.68,1.54A11.92,11.92,0,0,0,486.61,82.57Z"/><path class="cls-1" d="M516.2,45.36h13.65v18.5h20.61V45.36H564.2V92.74H550.46V75H529.85v17.7H516.2Z"/><path class="cls-1" d="M617.12,56.64h-16v36.1H587.45V56.64h-16V45.36h45.7Z"/><path class="cls-1" d="M621.52,62.45h24.93v11H621.52Z"/><path class="cls-1" d="M711.79,31.1V92.74H697.7v-50H676.57l-.44,12.86A131.51,131.51,0,0,1,674,76.85q-1.66,8.15-5.59,12.5t-11,4.36a31.54,31.54,0,0,1-7.05-1l.88-12.06a8.83,8.83,0,0,0,2.55.35Q659,81,661,75t2.55-18.89l.88-25Z"/><path class="cls-1" d="M734.91,90.32a23.2,23.2,0,0,1-9.29-8.67,23.93,23.93,0,0,1-3.35-12.6,23.92,23.92,0,0,1,3.35-12.59,23.2,23.2,0,0,1,9.29-8.67,28.34,28.34,0,0,1,13.43-3.13,28,28,0,0,1,13.38,3.13A23.22,23.22,0,0,1,771,56.46a23.92,23.92,0,0,1,3.35,12.59A23.93,23.93,0,0,1,771,81.65a23.22,23.22,0,0,1-9.25,8.67,28,28,0,0,1-13.38,3.13A28.34,28.34,0,0,1,734.91,90.32ZM757,78.61q3.39-3.57,3.39-9.56T757,59.5a11.43,11.43,0,0,0-8.67-3.57,11.59,11.59,0,0,0-8.72,3.57q-3.43,3.57-3.43,9.55t3.43,9.56a11.59,11.59,0,0,0,8.72,3.57A11.43,11.43,0,0,0,757,78.61Z"/><path class="cls-1" d="M821.7,56.64H797.39v36.1H783.74V45.36h38Z"/><path class="cls-1" d="M829,45.36h13.65V73.54l23.07-28.18h12.59V92.74H864.67V64.56l-23,28.18H829Z"/><path class="cls-1" d="M900.47,90.32a23.36,23.36,0,0,1-9.42-8.67,23.68,23.68,0,0,1-3.39-12.6,23.67,23.67,0,0,1,3.39-12.59,23.36,23.36,0,0,1,9.42-8.67,29,29,0,0,1,13.61-3.13,26.28,26.28,0,0,1,13.07,3.13,18.49,18.49,0,0,1,8.15,8.94l-10.66,5.72c-2.46-4.34-6-6.52-10.65-6.52a12.09,12.09,0,0,0-8.9,3.52q-3.51,3.52-3.52,9.6t3.52,9.6a12.06,12.06,0,0,0,8.9,3.53q7.05,0,10.65-6.52l10.66,5.81a18.93,18.93,0,0,1-8.15,8.81,26.08,26.08,0,0,1-13.07,3.17A29,29,0,0,1,900.47,90.32Z"/><path class="cls-1" d="M983.3,56.64h-16v36.1H953.62V56.64h-16V45.36H983.3Z"/><path class="cls-1" d="M990.6,45.36h13.65V73.54l23.08-28.18h12.59V92.74h-13.65V64.56l-23,28.18H990.6Z"/><path class="cls-1" d="M1074,74.78h-7.13v18h-13.74V45.36h13.74V63.77h7.4l12.85-18.41h14.62l-16.55,22.73,17.7,24.65h-16.21Z"/><path class="cls-1" d="M1144.1,49.9q5.89,5.24,5.9,15.81v27h-12.86v-5.9q-3.87,6.61-14.44,6.61a22.42,22.42,0,0,1-9.46-1.85,14.1,14.1,0,0,1-6.13-5.11,13.37,13.37,0,0,1-2.11-7.4,12.35,12.35,0,0,1,5-10.39q5-3.78,15.36-3.79h10.92a8.76,8.76,0,0,0-2.73-6.91q-2.73-2.41-8.19-2.42a24,24,0,0,0-7.44,1.19,19.68,19.68,0,0,0-6.21,3.21l-4.93-9.6a30.1,30.1,0,0,1,9.29-4.22,41.57,41.57,0,0,1,11.14-1.5Q1138.2,44.66,1144.1,49.9Zm-11.71,32.67a8.85,8.85,0,0,0,3.87-4.8V72.93h-9.42c-5.63,0-8.46,1.85-8.46,5.55a5,5,0,0,0,2.08,4.18,9.3,9.3,0,0,0,5.68,1.54A11.94,11.94,0,0,0,1132.39,82.57Z"/><path class="cls-1" d="M326.77,142H314.39v32h-3.68V142H298.33v-3.22h28.44Z"/><path class="cls-1" d="M352.13,149a12.07,12.07,0,0,1,4.73,4.75,15.26,15.26,0,0,1,0,14,12,12,0,0,1-4.71,4.76,13.57,13.57,0,0,1-6.76,1.69,12.54,12.54,0,0,1-5.82-1.34,11.1,11.1,0,0,1-4.25-3.9v14.75h-3.57V147.49h3.42v5.24a11,11,0,0,1,4.25-4,12.47,12.47,0,0,1,6-1.41A13.52,13.52,0,0,1,352.13,149Zm-2,20.78a9,9,0,0,0,3.55-3.65,11.14,11.14,0,0,0,1.28-5.38,11,11,0,0,0-1.28-5.36,9.3,9.3,0,0,0-3.55-3.65,10.37,10.37,0,0,0-10.09,0,9.32,9.32,0,0,0-3.53,3.65,11,11,0,0,0-1.28,5.36,11.14,11.14,0,0,0,1.28,5.38,9.06,9.06,0,0,0,3.53,3.65,10.51,10.51,0,0,0,10.09,0Z"/><path class="cls-1" d="M383.18,149.88q2.76,2.6,2.76,7.68V174h-3.42v-4.12a8.14,8.14,0,0,1-3.55,3.22,12.41,12.41,0,0,1-5.55,1.16,10.88,10.88,0,0,1-7.05-2.12,7.27,7.27,0,0,1-.18-11Q368.64,159,374,159h8.4v-1.61a6.8,6.8,0,0,0-1.91-5.21,7.92,7.92,0,0,0-5.59-1.79,14.34,14.34,0,0,0-4.83.83,12.27,12.27,0,0,0-4,2.29l-1.61-2.66a14.26,14.26,0,0,1,4.83-2.65,18.8,18.8,0,0,1,5.94-.93C378.68,147.29,381.33,148.16,383.18,149.88Zm-4,20.13a8.21,8.21,0,0,0,3.22-4v-4.33h-8.3q-6.79,0-6.8,4.74a4.31,4.31,0,0,0,1.77,3.64A8,8,0,0,0,374,171.4,9.35,9.35,0,0,0,379.15,170Z"/><path class="cls-1" d="M395.46,147.49H399v11.73h16.66V147.49h3.57V174h-3.57V162.29H399V174h-3.57Z"/><path class="cls-1" d="M433.47,172.5a12.37,12.37,0,0,1-4.85-4.8,14.64,14.64,0,0,1,0-13.92,12.45,12.45,0,0,1,4.85-4.78,14.31,14.31,0,0,1,7-1.71,13.6,13.6,0,0,1,6.12,1.34,10.06,10.06,0,0,1,4.25,3.9l-2.67,1.81a8.39,8.39,0,0,0-3.32-3,9.9,9.9,0,0,0-4.38-1,10.28,10.28,0,0,0-5.15,1.29,9,9,0,0,0-3.58,3.64,12,12,0,0,0,0,10.8,9,9,0,0,0,3.58,3.62,10.28,10.28,0,0,0,5.15,1.29,10,10,0,0,0,4.38-1,8.16,8.16,0,0,0,3.32-2.92l2.67,1.81a10.15,10.15,0,0,1-4.28,3.9,13.62,13.62,0,0,1-6.09,1.34A14.31,14.31,0,0,1,433.47,172.5Z"/><path class="cls-1" d="M481.51,147.49V174h-3.58v-23.3h-16.6V174h-3.58V147.49Z"/><path class="cls-1" d="M495.7,172.48a12.61,12.61,0,0,1-4.83-4.81,14.58,14.58,0,0,1,0-13.89A12.46,12.46,0,0,1,495.7,149a14.76,14.76,0,0,1,13.79,0,12.39,12.39,0,0,1,4.8,4.78,14.73,14.73,0,0,1,0,13.89,12.53,12.53,0,0,1-4.8,4.81,14.53,14.53,0,0,1-13.79,0Zm11.95-2.72a8.93,8.93,0,0,0,3.5-3.65,12.22,12.22,0,0,0,0-10.77,9,9,0,0,0-3.5-3.64,10.57,10.57,0,0,0-10.12,0,9.14,9.14,0,0,0-3.52,3.64,12,12,0,0,0,0,10.77,9.1,9.1,0,0,0,3.52,3.65,10.57,10.57,0,0,0,10.12,0Z"/><path class="cls-1" d="M544.06,149a12.07,12.07,0,0,1,4.73,4.75,15.26,15.26,0,0,1,0,14,12,12,0,0,1-4.71,4.76,13.58,13.58,0,0,1-6.77,1.69,12.52,12.52,0,0,1-5.81-1.34,11,11,0,0,1-4.25-3.9v14.75h-3.57V147.49h3.42v5.24a11,11,0,0,1,4.25-4,12.46,12.46,0,0,1,6-1.41A13.56,13.56,0,0,1,544.06,149Zm-2,20.78a9,9,0,0,0,3.55-3.65,11,11,0,0,0,1.28-5.38,10.9,10.9,0,0,0-1.28-5.36,9.24,9.24,0,0,0-3.55-3.65,10.35,10.35,0,0,0-10.08,0,9.32,9.32,0,0,0-3.53,3.65,11,11,0,0,0-1.28,5.36,11.14,11.14,0,0,0,1.28,5.38,9.06,9.06,0,0,0,3.53,3.65,10.49,10.49,0,0,0,10.08,0Z"/><path class="cls-1" d="M575.81,150.66h-10V174h-3.58v-23.3h-10v-3.17h23.6Z"/><path class="cls-1" d="M581,147.49h3.58v11.73h16.65V147.49h3.58V174h-3.58V162.29H584.57V174H581Z"/><path class="cls-1" d="M632,149.88q2.78,2.6,2.77,7.68V174h-3.42v-4.12a8.25,8.25,0,0,1-3.55,3.22,12.43,12.43,0,0,1-5.56,1.16,10.91,10.91,0,0,1-7-2.12,7.28,7.28,0,0,1-.17-11q2.44-2.06,7.77-2.06h8.41v-1.61a6.77,6.77,0,0,0-1.92-5.21,7.88,7.88,0,0,0-5.58-1.79,14.26,14.26,0,0,0-4.83.83,12.32,12.32,0,0,0-4,2.29l-1.61-2.66a14.26,14.26,0,0,1,4.83-2.65,18.84,18.84,0,0,1,5.94-.93C627.53,147.29,630.18,148.16,632,149.88ZM628,170a8.27,8.27,0,0,0,3.22-4v-4.33h-8.31q-6.79,0-6.79,4.74a4.33,4.33,0,0,0,1.76,3.64,8,8,0,0,0,4.93,1.34A9.38,9.38,0,0,0,628,170Z"/><path class="cls-1" d="M664.63,147.49V174h-3.27v-8.75h-9.31L645.91,174H642l6.6-9.26a8.92,8.92,0,0,1-4.73-2.91,8.08,8.08,0,0,1-1.66-5.24,8,8,0,0,1,3-6.74c2-1.54,4.77-2.32,8.26-2.32Zm-11.27,15h8V150.66h-7.75q-7.75,0-7.75,6T653.36,162.54Z"/><path class="cls-1" d="M697.59,162.19h-6V174H688V147.49h3.57v11.63h6.09L707,147.49h3.88l-10.42,12.84L711.58,174h-4.23Z"/><path class="cls-1" d="M720.29,172.48a12.61,12.61,0,0,1-4.83-4.81,14.58,14.58,0,0,1,0-13.89,12.46,12.46,0,0,1,4.83-4.78,14.76,14.76,0,0,1,13.79,0,12.39,12.39,0,0,1,4.8,4.78,14.73,14.73,0,0,1,0,13.89,12.53,12.53,0,0,1-4.8,4.81,14.53,14.53,0,0,1-13.79,0Zm12-2.72a8.93,8.93,0,0,0,3.5-3.65,12.22,12.22,0,0,0,0-10.77,9,9,0,0,0-3.5-3.64,10.57,10.57,0,0,0-10.12,0,9.14,9.14,0,0,0-3.52,3.64,12,12,0,0,0,0,10.77,9.1,9.1,0,0,0,3.52,3.65,10.57,10.57,0,0,0,10.12,0Z"/><path class="cls-1" d="M777.86,147.49V174h-3.28V153l-10.71,17.71h-1.61L751.54,153v21h-3.27V147.49h3.62l11.22,19.08,11.43-19.08Z"/><path class="cls-1" d="M811.77,147.49V174H808.2v-23.3H791.59V174H788V147.49Z"/><path class="cls-1" d="M839,149.88q2.78,2.6,2.77,7.68V174h-3.42v-4.12a8.19,8.19,0,0,1-3.55,3.22,12.43,12.43,0,0,1-5.56,1.16,10.87,10.87,0,0,1-7-2.12,7.27,7.27,0,0,1-.18-11q2.44-2.06,7.78-2.06h8.4v-1.61a6.8,6.8,0,0,0-1.91-5.21,7.92,7.92,0,0,0-5.59-1.79,14.34,14.34,0,0,0-4.83.83,12.27,12.27,0,0,0-4,2.29l-1.61-2.66a14.26,14.26,0,0,1,4.83-2.65,18.78,18.78,0,0,1,5.93-.93C834.5,147.29,837.15,148.16,839,149.88ZM835,170a8.21,8.21,0,0,0,3.22-4v-4.33h-8.3q-6.79,0-6.8,4.74a4.31,4.31,0,0,0,1.77,3.64,8,8,0,0,0,4.93,1.34A9.35,9.35,0,0,0,835,170Z"/><path class="cls-1" d="M851.27,147.49h3.58v11.73h16.66V147.49h3.57V174h-3.57V162.29H854.85V174h-3.58Z"/><path class="cls-1" d="M885.24,147.49h3.58v21l17.66-21h3.17V174h-3.57v-21l-17.61,21h-3.23Z"/><path class="cls-1" d="M940.2,147.49V174h-3.27v-8.75h-9.31L921.48,174H917.6l6.59-9.26a9,9,0,0,1-4.73-2.91,8.14,8.14,0,0,1-1.66-5.24,8,8,0,0,1,3-6.74c2-1.54,4.77-2.32,8.26-2.32Zm-11.28,15h8V150.66h-7.75q-7.75,0-7.75,6T928.92,162.54Z"/><polygon class="cls-1" points="243.23 99.02 186.06 0 71.7 0 128.88 99.02 243.23 99.02"/><polygon class="cls-1" points="57.17 8.39 0 107.41 57.18 206.45 114.35 107.42 57.17 8.39"/><path class="cls-1" d="M219.06,128.3l-31.47,54.52a5.61,5.61,0,0,1-4.85,2.8h-43.4a14.68,14.68,0,0,1,12.71-7.34h12.74a29.38,29.38,0,0,0,25.42-14.68H133.55a55.92,55.92,0,0,0-48.42,28L71.7,214.82h98.22a28,28,0,0,0,24.21-14l50.36-87.22A29.38,29.38,0,0,0,219.06,128.3Z"/><path class="cls-1" d="M134.45,142.76l-8.36,14.48a80.17,80.17,0,0,1,12.23-1,9.13,9.13,0,0,0,7.92-4.57l13.63-23.61A29.35,29.35,0,0,0,134.45,142.76Z"/><path class="cls-1" d="M197.09,151.69l19.22-33.3a29.35,29.35,0,0,0-25.42,14.68L177.5,156.26h11.67A9.17,9.17,0,0,0,197.09,151.69Z"/><path class="cls-1" d="M171.66,151.69l16.43-28.45a29.35,29.35,0,0,0-25.42,14.67l-10.59,18.35h11.67A9.13,9.13,0,0,0,171.66,151.69Z"/></g></g></svg>