<svg xmlns="http://www.w3.org/2000/svg" viewBox="0 0 170.52 149.83"><defs><style>.cls-1{fill:#007041;}</style></defs><g id="Слой_2" data-name="Слой 2"><g id="mainLinks"><polygon class="cls-1" points="169.65 69.07 129.77 0 50.01 0 89.89 69.07 169.65 69.07"/><polygon class="cls-1" points="39.88 5.85 0 74.92 39.88 144 79.75 74.92 39.88 5.85"/><path class="cls-1" d="M152.79,89.49l-21.95,38a3.91,3.91,0,0,1-3.38,2H97.19a10.22,10.22,0,0,1,8.86-5.11h8.88a20.5,20.5,0,0,0,17.74-10.24H93.15a39,39,0,0,0-33.77,19.5L50,149.83h68.5a19.48,19.48,0,0,0,16.89-9.75l35.12-60.83A20.47,20.47,0,0,0,152.79,89.49Z"/><path class="cls-1" d="M93.78,99.57,88,109.67a56.19,56.19,0,0,1,8.53-.68A6.38,6.38,0,0,0,102,105.8l9.51-16.47A20.46,20.46,0,0,0,93.78,99.57Z"/><path class="cls-1" d="M137.46,105.8l13.41-23.22a20.48,20.48,0,0,0-17.73,10.23L123.8,109h8.14A6.36,6.36,0,0,0,137.46,105.8Z"/><path class="cls-1" d="M119.73,105.8,131.19,86a20.49,20.49,0,0,0-17.73,10.24L106.07,109h8.14A6.38,6.38,0,0,0,119.73,105.8Z"/></g></g></svg>