<svg xmlns="http://www.w3.org/2000/svg" viewBox="0 0 126.61 146.02"><defs><style>.cls-1{fill:#fff;stroke:#007041;stroke-linecap:round;stroke-linejoin:round;stroke-width:5px;}</style></defs><g id="Слой_2" data-name="Слой 2"><g id="mainLinks"><rect class="cls-1" x="2.5" y="9.46" width="82.7" height="134.06"/><path class="cls-1" d="M111,143.52h0a8.84,8.84,0,0,1-8.83-9.32l4.64-84.82h8.37l4.64,84.82A8.83,8.83,0,0,1,111,143.52Z"/><rect class="cls-1" x="100.27" y="41.53" width="21.52" height="8.67" rx="4.33"/><path class="cls-1" d="M124.1,28A13.37,13.37,0,0,1,111,41.53c-7.13,0-13.22-3.35-16.47-11.42-4-9.89-.55-18.78,10.58-27.61C110.71,18.29,123.59,15.54,124.1,28Z"/><line class="cls-1" x1="105.82" y1="68.15" x2="116.23" y2="68.15"/><path class="cls-1" d="M65,75.34h0a3.94,3.94,0,0,0-6,3.41h0a3.94,3.94,0,0,1-7.39,1.93h0a3.94,3.94,0,0,0-6.89-.05h0a3.94,3.94,0,0,1-7.38-2h0a3.93,3.93,0,0,0-5.94-3.48h0A3.94,3.94,0,0,1,26,69.68h0a3.93,3.93,0,0,0-3.41-6h0a3.94,3.94,0,0,1-1.93-7.4h0a3.94,3.94,0,0,0,0-6.89h0a3.94,3.94,0,0,1,2-7.37h0a4,4,0,0,0,3.49-5.95h0a3.94,3.94,0,0,1,5.44-5.37h0a3.94,3.94,0,0,0,6-3.4h0a3.94,3.94,0,0,1,7.39-1.93h0a3.94,3.94,0,0,0,6.89,0h0a3.94,3.94,0,0,1,7.37,2h0a4,4,0,0,0,6,3.48h0a3.94,3.94,0,0,1,5.37,5.44h0a3.94,3.94,0,0,0,3.4,6h0A3.94,3.94,0,0,1,76,49.77h0a3.94,3.94,0,0,0,0,6.89h0a3.94,3.94,0,0,1-2,7.37h0A3.94,3.94,0,0,0,70.41,70h0A3.94,3.94,0,0,1,65,75.34Z"/><rect class="cls-1" x="12.44" y="5.94" width="11.16" height="7.02" transform="translate(27.48 -8.56) rotate(90)"/><rect class="cls-1" x="64.1" y="5.94" width="11.16" height="7.02" transform="translate(79.14 -60.23) rotate(90)"/><circle class="cls-1" cx="48.32" cy="53.03" r="18.33"/><path class="cls-1" d="M2.5,117l20.89-14.34a8.49,8.49,0,0,1,11.51,1.78l30.38,39.09"/><line class="cls-1" x1="54.94" y1="47.22" x2="54.94" y2="49.67"/><line class="cls-1" x1="41.7" y1="47.22" x2="41.7" y2="49.67"/><path class="cls-1" d="M40.84,58.74a12,12,0,0,0,7.48,3,12,12,0,0,0,7.48-3"/></g></g></svg>